<mxfile host="app.diagrams.net" modified="2024-03-14T11:31:47.073Z" agent="Mozilla/5.0 (Windows NT 10.0; Win64; x64) AppleWebKit/537.36 (KHTML, like Gecko) Chrome/122.0.0.0 Safari/537.36" etag="xgvnY_wYRZHTUkAxxD2C" version="24.0.6" type="device">
  <diagram name="PÃ¡gina-1" id="o84xE_gBBSw2re9d6lBy">
    <mxGraphModel dx="880" dy="468" grid="1" gridSize="10" guides="1" tooltips="1" connect="1" arrows="1" fold="1" page="1" pageScale="1" pageWidth="827" pageHeight="1169" math="0" shadow="0">
      <root>
        <mxCell id="0" />
        <mxCell id="1" parent="0" />
        <mxCell id="w8ty80Ysfaf3wrr9nWGA-1" value="Alunos" style="swimlane;fontStyle=0;childLayout=stackLayout;horizontal=1;startSize=30;horizontalStack=0;resizeParent=1;resizeParentMax=0;resizeLast=0;collapsible=1;marginBottom=0;whiteSpace=wrap;html=1;" vertex="1" parent="1">
          <mxGeometry x="30" y="20" width="140" height="180" as="geometry" />
        </mxCell>
        <mxCell id="w8ty80Ysfaf3wrr9nWGA-2" value="cpf_pk" style="text;strokeColor=none;fillColor=none;align=left;verticalAlign=middle;spacingLeft=4;spacingRight=4;overflow=hidden;points=[[0,0.5],[1,0.5]];portConstraint=eastwest;rotatable=0;whiteSpace=wrap;html=1;" vertex="1" parent="w8ty80Ysfaf3wrr9nWGA-1">
          <mxGeometry y="30" width="140" height="30" as="geometry" />
        </mxCell>
        <mxCell id="w8ty80Ysfaf3wrr9nWGA-3" value="olho" style="text;strokeColor=none;fillColor=none;align=left;verticalAlign=middle;spacingLeft=4;spacingRight=4;overflow=hidden;points=[[0,0.5],[1,0.5]];portConstraint=eastwest;rotatable=0;whiteSpace=wrap;html=1;" vertex="1" parent="w8ty80Ysfaf3wrr9nWGA-1">
          <mxGeometry y="60" width="140" height="30" as="geometry" />
        </mxCell>
        <mxCell id="w8ty80Ysfaf3wrr9nWGA-4" value="cabelo" style="text;strokeColor=none;fillColor=none;align=left;verticalAlign=middle;spacingLeft=4;spacingRight=4;overflow=hidden;points=[[0,0.5],[1,0.5]];portConstraint=eastwest;rotatable=0;whiteSpace=wrap;html=1;" vertex="1" parent="w8ty80Ysfaf3wrr9nWGA-1">
          <mxGeometry y="90" width="140" height="30" as="geometry" />
        </mxCell>
        <mxCell id="w8ty80Ysfaf3wrr9nWGA-25" value="logar" style="text;strokeColor=none;fillColor=none;align=left;verticalAlign=middle;spacingLeft=4;spacingRight=4;overflow=hidden;points=[[0,0.5],[1,0.5]];portConstraint=eastwest;rotatable=0;whiteSpace=wrap;html=1;" vertex="1" parent="w8ty80Ysfaf3wrr9nWGA-1">
          <mxGeometry y="120" width="140" height="30" as="geometry" />
        </mxCell>
        <mxCell id="w8ty80Ysfaf3wrr9nWGA-26" value="pegar_livro" style="text;strokeColor=none;fillColor=none;align=left;verticalAlign=middle;spacingLeft=4;spacingRight=4;overflow=hidden;points=[[0,0.5],[1,0.5]];portConstraint=eastwest;rotatable=0;whiteSpace=wrap;html=1;" vertex="1" parent="w8ty80Ysfaf3wrr9nWGA-1">
          <mxGeometry y="150" width="140" height="30" as="geometry" />
        </mxCell>
        <mxCell id="w8ty80Ysfaf3wrr9nWGA-27" value="" style="endArrow=none;html=1;rounded=0;entryX=0;entryY=-0.133;entryDx=0;entryDy=0;entryPerimeter=0;exitX=1.021;exitY=-0.067;exitDx=0;exitDy=0;exitPerimeter=0;" edge="1" parent="w8ty80Ysfaf3wrr9nWGA-1" source="w8ty80Ysfaf3wrr9nWGA-25" target="w8ty80Ysfaf3wrr9nWGA-25">
          <mxGeometry width="50" height="50" relative="1" as="geometry">
            <mxPoint x="360" y="240" as="sourcePoint" />
            <mxPoint x="410" y="190" as="targetPoint" />
          </mxGeometry>
        </mxCell>
        <mxCell id="w8ty80Ysfaf3wrr9nWGA-5" value="Livros" style="swimlane;fontStyle=0;childLayout=stackLayout;horizontal=1;startSize=30;horizontalStack=0;resizeParent=1;resizeParentMax=0;resizeLast=0;collapsible=1;marginBottom=0;whiteSpace=wrap;html=1;" vertex="1" parent="1">
          <mxGeometry x="350" y="20" width="140" height="120" as="geometry" />
        </mxCell>
        <mxCell id="w8ty80Ysfaf3wrr9nWGA-6" value="nome_pk" style="text;strokeColor=none;fillColor=none;align=left;verticalAlign=middle;spacingLeft=4;spacingRight=4;overflow=hidden;points=[[0,0.5],[1,0.5]];portConstraint=eastwest;rotatable=0;whiteSpace=wrap;html=1;" vertex="1" parent="w8ty80Ysfaf3wrr9nWGA-5">
          <mxGeometry y="30" width="140" height="30" as="geometry" />
        </mxCell>
        <mxCell id="w8ty80Ysfaf3wrr9nWGA-7" value="quantidade_paginas" style="text;strokeColor=none;fillColor=none;align=left;verticalAlign=middle;spacingLeft=4;spacingRight=4;overflow=hidden;points=[[0,0.5],[1,0.5]];portConstraint=eastwest;rotatable=0;whiteSpace=wrap;html=1;" vertex="1" parent="w8ty80Ysfaf3wrr9nWGA-5">
          <mxGeometry y="60" width="140" height="30" as="geometry" />
        </mxCell>
        <mxCell id="w8ty80Ysfaf3wrr9nWGA-8" value="cadastrados" style="text;strokeColor=none;fillColor=none;align=left;verticalAlign=middle;spacingLeft=4;spacingRight=4;overflow=hidden;points=[[0,0.5],[1,0.5]];portConstraint=eastwest;rotatable=0;whiteSpace=wrap;html=1;" vertex="1" parent="w8ty80Ysfaf3wrr9nWGA-5">
          <mxGeometry y="90" width="140" height="30" as="geometry" />
        </mxCell>
        <mxCell id="w8ty80Ysfaf3wrr9nWGA-28" value="" style="endArrow=none;html=1;rounded=0;entryX=1;entryY=-0.033;entryDx=0;entryDy=0;entryPerimeter=0;exitX=0.021;exitY=1;exitDx=0;exitDy=0;exitPerimeter=0;" edge="1" parent="w8ty80Ysfaf3wrr9nWGA-5" source="w8ty80Ysfaf3wrr9nWGA-7" target="w8ty80Ysfaf3wrr9nWGA-8">
          <mxGeometry width="50" height="50" relative="1" as="geometry">
            <mxPoint x="40" y="240" as="sourcePoint" />
            <mxPoint x="90" y="190" as="targetPoint" />
          </mxGeometry>
        </mxCell>
        <mxCell id="w8ty80Ysfaf3wrr9nWGA-9" value="Bibliotecaria" style="swimlane;fontStyle=0;childLayout=stackLayout;horizontal=1;startSize=30;horizontalStack=0;resizeParent=1;resizeParentMax=0;resizeLast=0;collapsible=1;marginBottom=0;whiteSpace=wrap;html=1;" vertex="1" parent="1">
          <mxGeometry x="650" y="20" width="140" height="150" as="geometry" />
        </mxCell>
        <mxCell id="w8ty80Ysfaf3wrr9nWGA-10" value="cpf_bibli_pk" style="text;strokeColor=none;fillColor=none;align=left;verticalAlign=middle;spacingLeft=4;spacingRight=4;overflow=hidden;points=[[0,0.5],[1,0.5]];portConstraint=eastwest;rotatable=0;whiteSpace=wrap;html=1;" vertex="1" parent="w8ty80Ysfaf3wrr9nWGA-9">
          <mxGeometry y="30" width="140" height="30" as="geometry" />
        </mxCell>
        <mxCell id="w8ty80Ysfaf3wrr9nWGA-11" value="armazenamento" style="text;strokeColor=none;fillColor=none;align=left;verticalAlign=middle;spacingLeft=4;spacingRight=4;overflow=hidden;points=[[0,0.5],[1,0.5]];portConstraint=eastwest;rotatable=0;whiteSpace=wrap;html=1;" vertex="1" parent="w8ty80Ysfaf3wrr9nWGA-9">
          <mxGeometry y="60" width="140" height="30" as="geometry" />
        </mxCell>
        <mxCell id="w8ty80Ysfaf3wrr9nWGA-12" value="cadastra" style="text;strokeColor=none;fillColor=none;align=left;verticalAlign=middle;spacingLeft=4;spacingRight=4;overflow=hidden;points=[[0,0.5],[1,0.5]];portConstraint=eastwest;rotatable=0;whiteSpace=wrap;html=1;" vertex="1" parent="w8ty80Ysfaf3wrr9nWGA-9">
          <mxGeometry y="90" width="140" height="30" as="geometry" />
        </mxCell>
        <mxCell id="w8ty80Ysfaf3wrr9nWGA-29" value="" style="endArrow=none;html=1;rounded=0;entryX=1.007;entryY=-0.067;entryDx=0;entryDy=0;entryPerimeter=0;exitX=0;exitY=-0.1;exitDx=0;exitDy=0;exitPerimeter=0;" edge="1" parent="w8ty80Ysfaf3wrr9nWGA-9" source="w8ty80Ysfaf3wrr9nWGA-12" target="w8ty80Ysfaf3wrr9nWGA-12">
          <mxGeometry width="50" height="50" relative="1" as="geometry">
            <mxPoint x="-260" y="240" as="sourcePoint" />
            <mxPoint x="-210" y="190" as="targetPoint" />
          </mxGeometry>
        </mxCell>
        <mxCell id="w8ty80Ysfaf3wrr9nWGA-30" value="loga" style="text;strokeColor=none;fillColor=none;align=left;verticalAlign=middle;spacingLeft=4;spacingRight=4;overflow=hidden;points=[[0,0.5],[1,0.5]];portConstraint=eastwest;rotatable=0;whiteSpace=wrap;html=1;" vertex="1" parent="w8ty80Ysfaf3wrr9nWGA-9">
          <mxGeometry y="120" width="140" height="30" as="geometry" />
        </mxCell>
        <mxCell id="w8ty80Ysfaf3wrr9nWGA-13" value="Escola" style="swimlane;fontStyle=0;childLayout=stackLayout;horizontal=1;startSize=30;horizontalStack=0;resizeParent=1;resizeParentMax=0;resizeLast=0;collapsible=1;marginBottom=0;whiteSpace=wrap;html=1;" vertex="1" parent="1">
          <mxGeometry x="30" y="240" width="140" height="150" as="geometry" />
        </mxCell>
        <mxCell id="w8ty80Ysfaf3wrr9nWGA-14" value="cnpj_pk" style="text;strokeColor=none;fillColor=none;align=left;verticalAlign=middle;spacingLeft=4;spacingRight=4;overflow=hidden;points=[[0,0.5],[1,0.5]];portConstraint=eastwest;rotatable=0;whiteSpace=wrap;html=1;" vertex="1" parent="w8ty80Ysfaf3wrr9nWGA-13">
          <mxGeometry y="30" width="140" height="30" as="geometry" />
        </mxCell>
        <mxCell id="w8ty80Ysfaf3wrr9nWGA-15" value="professores" style="text;strokeColor=none;fillColor=none;align=left;verticalAlign=middle;spacingLeft=4;spacingRight=4;overflow=hidden;points=[[0,0.5],[1,0.5]];portConstraint=eastwest;rotatable=0;whiteSpace=wrap;html=1;" vertex="1" parent="w8ty80Ysfaf3wrr9nWGA-13">
          <mxGeometry y="60" width="140" height="30" as="geometry" />
        </mxCell>
        <mxCell id="w8ty80Ysfaf3wrr9nWGA-16" value="logam" style="text;strokeColor=none;fillColor=none;align=left;verticalAlign=middle;spacingLeft=4;spacingRight=4;overflow=hidden;points=[[0,0.5],[1,0.5]];portConstraint=eastwest;rotatable=0;whiteSpace=wrap;html=1;" vertex="1" parent="w8ty80Ysfaf3wrr9nWGA-13">
          <mxGeometry y="90" width="140" height="30" as="geometry" />
        </mxCell>
        <mxCell id="w8ty80Ysfaf3wrr9nWGA-35" value="cadastram" style="text;strokeColor=none;fillColor=none;align=left;verticalAlign=middle;spacingLeft=4;spacingRight=4;overflow=hidden;points=[[0,0.5],[1,0.5]];portConstraint=eastwest;rotatable=0;whiteSpace=wrap;html=1;" vertex="1" parent="w8ty80Ysfaf3wrr9nWGA-13">
          <mxGeometry y="120" width="140" height="30" as="geometry" />
        </mxCell>
        <mxCell id="w8ty80Ysfaf3wrr9nWGA-36" value="" style="endArrow=none;html=1;rounded=0;entryX=0;entryY=-0.133;entryDx=0;entryDy=0;entryPerimeter=0;exitX=0.993;exitY=-0.1;exitDx=0;exitDy=0;exitPerimeter=0;" edge="1" parent="w8ty80Ysfaf3wrr9nWGA-13" source="w8ty80Ysfaf3wrr9nWGA-16" target="w8ty80Ysfaf3wrr9nWGA-16">
          <mxGeometry width="50" height="50" relative="1" as="geometry">
            <mxPoint x="360" y="20" as="sourcePoint" />
            <mxPoint x="410" y="-30" as="targetPoint" />
          </mxGeometry>
        </mxCell>
        <mxCell id="w8ty80Ysfaf3wrr9nWGA-17" value="Multas" style="swimlane;fontStyle=0;childLayout=stackLayout;horizontal=1;startSize=30;horizontalStack=0;resizeParent=1;resizeParentMax=0;resizeLast=0;collapsible=1;marginBottom=0;whiteSpace=wrap;html=1;" vertex="1" parent="1">
          <mxGeometry x="344" y="240" width="140" height="180" as="geometry" />
        </mxCell>
        <mxCell id="w8ty80Ysfaf3wrr9nWGA-18" value="codigos_pk" style="text;strokeColor=none;fillColor=none;align=left;verticalAlign=middle;spacingLeft=4;spacingRight=4;overflow=hidden;points=[[0,0.5],[1,0.5]];portConstraint=eastwest;rotatable=0;whiteSpace=wrap;html=1;" vertex="1" parent="w8ty80Ysfaf3wrr9nWGA-17">
          <mxGeometry y="30" width="140" height="30" as="geometry" />
        </mxCell>
        <mxCell id="w8ty80Ysfaf3wrr9nWGA-19" value="extrato" style="text;strokeColor=none;fillColor=none;align=left;verticalAlign=middle;spacingLeft=4;spacingRight=4;overflow=hidden;points=[[0,0.5],[1,0.5]];portConstraint=eastwest;rotatable=0;whiteSpace=wrap;html=1;" vertex="1" parent="w8ty80Ysfaf3wrr9nWGA-17">
          <mxGeometry y="60" width="140" height="30" as="geometry" />
        </mxCell>
        <mxCell id="w8ty80Ysfaf3wrr9nWGA-20" value="datas" style="text;strokeColor=none;fillColor=none;align=left;verticalAlign=middle;spacingLeft=4;spacingRight=4;overflow=hidden;points=[[0,0.5],[1,0.5]];portConstraint=eastwest;rotatable=0;whiteSpace=wrap;html=1;" vertex="1" parent="w8ty80Ysfaf3wrr9nWGA-17">
          <mxGeometry y="90" width="140" height="30" as="geometry" />
        </mxCell>
        <mxCell id="w8ty80Ysfaf3wrr9nWGA-32" value="cadastram" style="text;strokeColor=none;fillColor=none;align=left;verticalAlign=middle;spacingLeft=4;spacingRight=4;overflow=hidden;points=[[0,0.5],[1,0.5]];portConstraint=eastwest;rotatable=0;whiteSpace=wrap;html=1;" vertex="1" parent="w8ty80Ysfaf3wrr9nWGA-17">
          <mxGeometry y="120" width="140" height="30" as="geometry" />
        </mxCell>
        <mxCell id="w8ty80Ysfaf3wrr9nWGA-33" value="" style="endArrow=none;html=1;rounded=0;entryX=1.007;entryY=1.1;entryDx=0;entryDy=0;entryPerimeter=0;exitX=0;exitY=0.033;exitDx=0;exitDy=0;exitPerimeter=0;" edge="1" parent="w8ty80Ysfaf3wrr9nWGA-17" source="w8ty80Ysfaf3wrr9nWGA-32" target="w8ty80Ysfaf3wrr9nWGA-20">
          <mxGeometry width="50" height="50" relative="1" as="geometry">
            <mxPoint x="46" y="20" as="sourcePoint" />
            <mxPoint x="96" y="-30" as="targetPoint" />
          </mxGeometry>
        </mxCell>
        <mxCell id="w8ty80Ysfaf3wrr9nWGA-34" value="envia" style="text;strokeColor=none;fillColor=none;align=left;verticalAlign=middle;spacingLeft=4;spacingRight=4;overflow=hidden;points=[[0,0.5],[1,0.5]];portConstraint=eastwest;rotatable=0;whiteSpace=wrap;html=1;" vertex="1" parent="w8ty80Ysfaf3wrr9nWGA-17">
          <mxGeometry y="150" width="140" height="30" as="geometry" />
        </mxCell>
        <mxCell id="w8ty80Ysfaf3wrr9nWGA-21" value="Site" style="swimlane;fontStyle=0;childLayout=stackLayout;horizontal=1;startSize=30;horizontalStack=0;resizeParent=1;resizeParentMax=0;resizeLast=0;collapsible=1;marginBottom=0;whiteSpace=wrap;html=1;" vertex="1" parent="1">
          <mxGeometry x="650" y="250" width="140" height="120" as="geometry" />
        </mxCell>
        <mxCell id="w8ty80Ysfaf3wrr9nWGA-22" value="https_pk" style="text;strokeColor=none;fillColor=none;align=left;verticalAlign=middle;spacingLeft=4;spacingRight=4;overflow=hidden;points=[[0,0.5],[1,0.5]];portConstraint=eastwest;rotatable=0;whiteSpace=wrap;html=1;" vertex="1" parent="w8ty80Ysfaf3wrr9nWGA-21">
          <mxGeometry y="30" width="140" height="30" as="geometry" />
        </mxCell>
        <mxCell id="w8ty80Ysfaf3wrr9nWGA-23" value="paginas" style="text;strokeColor=none;fillColor=none;align=left;verticalAlign=middle;spacingLeft=4;spacingRight=4;overflow=hidden;points=[[0,0.5],[1,0.5]];portConstraint=eastwest;rotatable=0;whiteSpace=wrap;html=1;" vertex="1" parent="w8ty80Ysfaf3wrr9nWGA-21">
          <mxGeometry y="60" width="140" height="30" as="geometry" />
        </mxCell>
        <mxCell id="w8ty80Ysfaf3wrr9nWGA-24" value="fornece" style="text;strokeColor=none;fillColor=none;align=left;verticalAlign=middle;spacingLeft=4;spacingRight=4;overflow=hidden;points=[[0,0.5],[1,0.5]];portConstraint=eastwest;rotatable=0;whiteSpace=wrap;html=1;" vertex="1" parent="w8ty80Ysfaf3wrr9nWGA-21">
          <mxGeometry y="90" width="140" height="30" as="geometry" />
        </mxCell>
        <mxCell id="w8ty80Ysfaf3wrr9nWGA-31" value="" style="endArrow=none;html=1;rounded=0;entryX=1;entryY=1.033;entryDx=0;entryDy=0;entryPerimeter=0;exitX=0.007;exitY=0.067;exitDx=0;exitDy=0;exitPerimeter=0;" edge="1" parent="w8ty80Ysfaf3wrr9nWGA-21" source="w8ty80Ysfaf3wrr9nWGA-24" target="w8ty80Ysfaf3wrr9nWGA-23">
          <mxGeometry width="50" height="50" relative="1" as="geometry">
            <mxPoint x="-260" y="10" as="sourcePoint" />
            <mxPoint x="-210" y="-40" as="targetPoint" />
          </mxGeometry>
        </mxCell>
        <mxCell id="w8ty80Ysfaf3wrr9nWGA-37" value="" style="endArrow=none;html=1;rounded=0;entryX=-0.007;entryY=0.117;entryDx=0;entryDy=0;entryPerimeter=0;exitX=1.007;exitY=0.089;exitDx=0;exitDy=0;exitPerimeter=0;" edge="1" parent="1" source="w8ty80Ysfaf3wrr9nWGA-1" target="w8ty80Ysfaf3wrr9nWGA-5">
          <mxGeometry width="50" height="50" relative="1" as="geometry">
            <mxPoint x="390" y="260" as="sourcePoint" />
            <mxPoint x="440" y="210" as="targetPoint" />
          </mxGeometry>
        </mxCell>
        <mxCell id="w8ty80Ysfaf3wrr9nWGA-38" value="" style="endArrow=none;html=1;rounded=0;entryX=0;entryY=0.093;entryDx=0;entryDy=0;entryPerimeter=0;exitX=1.007;exitY=0.125;exitDx=0;exitDy=0;exitPerimeter=0;" edge="1" parent="1" source="w8ty80Ysfaf3wrr9nWGA-5" target="w8ty80Ysfaf3wrr9nWGA-9">
          <mxGeometry width="50" height="50" relative="1" as="geometry">
            <mxPoint x="390" y="260" as="sourcePoint" />
            <mxPoint x="440" y="210" as="targetPoint" />
          </mxGeometry>
        </mxCell>
        <mxCell id="w8ty80Ysfaf3wrr9nWGA-39" value="" style="endArrow=none;html=1;rounded=0;exitX=1;exitY=0.1;exitDx=0;exitDy=0;exitPerimeter=0;" edge="1" parent="1" source="w8ty80Ysfaf3wrr9nWGA-13">
          <mxGeometry width="50" height="50" relative="1" as="geometry">
            <mxPoint x="390" y="260" as="sourcePoint" />
            <mxPoint x="640" y="30" as="targetPoint" />
            <Array as="points">
              <mxPoint x="260" y="255" />
              <mxPoint x="260" y="160" />
              <mxPoint x="640" y="160" />
            </Array>
          </mxGeometry>
        </mxCell>
        <mxCell id="w8ty80Ysfaf3wrr9nWGA-40" value="" style="endArrow=none;html=1;rounded=0;entryX=1;entryY=-0.133;entryDx=0;entryDy=0;entryPerimeter=0;exitX=-0.007;exitY=-0.1;exitDx=0;exitDy=0;exitPerimeter=0;" edge="1" parent="1" source="w8ty80Ysfaf3wrr9nWGA-18" target="w8ty80Ysfaf3wrr9nWGA-14">
          <mxGeometry width="50" height="50" relative="1" as="geometry">
            <mxPoint x="390" y="260" as="sourcePoint" />
            <mxPoint x="440" y="210" as="targetPoint" />
          </mxGeometry>
        </mxCell>
        <mxCell id="w8ty80Ysfaf3wrr9nWGA-41" value="" style="endArrow=none;html=1;rounded=0;entryX=-0.007;entryY=0.067;entryDx=0;entryDy=0;entryPerimeter=0;" edge="1" parent="1" target="w8ty80Ysfaf3wrr9nWGA-21">
          <mxGeometry width="50" height="50" relative="1" as="geometry">
            <mxPoint x="480" y="258" as="sourcePoint" />
            <mxPoint x="440" y="210" as="targetPoint" />
          </mxGeometry>
        </mxCell>
        <mxCell id="w8ty80Ysfaf3wrr9nWGA-42" value="" style="endArrow=none;html=1;rounded=0;entryX=1.014;entryY=0.107;entryDx=0;entryDy=0;entryPerimeter=0;" edge="1" parent="1" target="w8ty80Ysfaf3wrr9nWGA-9">
          <mxGeometry width="50" height="50" relative="1" as="geometry">
            <mxPoint x="790" y="270" as="sourcePoint" />
            <mxPoint x="440" y="210" as="targetPoint" />
            <Array as="points">
              <mxPoint x="820" y="270" />
              <mxPoint x="820" y="36" />
            </Array>
          </mxGeometry>
        </mxCell>
        <mxCell id="w8ty80Ysfaf3wrr9nWGA-43" value="" style="endArrow=none;html=1;rounded=0;entryX=0.014;entryY=0.094;entryDx=0;entryDy=0;entryPerimeter=0;exitX=0;exitY=0.5;exitDx=0;exitDy=0;" edge="1" parent="1" source="w8ty80Ysfaf3wrr9nWGA-23" target="w8ty80Ysfaf3wrr9nWGA-1">
          <mxGeometry width="50" height="50" relative="1" as="geometry">
            <mxPoint x="390" y="260" as="sourcePoint" />
            <mxPoint x="440" y="210" as="targetPoint" />
            <Array as="points">
              <mxPoint x="650" y="450" />
              <mxPoint x="10" y="450" />
              <mxPoint x="10" y="37" />
            </Array>
          </mxGeometry>
        </mxCell>
      </root>
    </mxGraphModel>
  </diagram>
</mxfile>
